<svg xmlns="http://www.w3.org/2000/svg" xmlns:xlink="http://www.w3.org/1999/xlink" width="1000" zoomAndPan="magnify" viewBox="0 0 750 374.999991" height="500" preserveAspectRatio="xMidYMid meet" version="1.0"><defs><g/></defs><g fill="#000000" fill-opacity="1"><g transform="translate(137.912109, 293.201529)"><g><path d="M 176.140625 0 L 118.1875 0 L 113.046875 -30.546875 L 112.765625 -31.40625 L 84.78125 -31.96875 L 61.375 -30.828125 L 56.53125 0 L 0.578125 0 L 56.53125 -184.703125 L 125.609375 -184.703125 Z M 104.203125 -73.078125 L 91.640625 -133.609375 L 88.21875 -133.609375 L 72.234375 -73.078125 L 88.21875 -72.796875 Z M 104.203125 -73.078125 "/></g></g></g><g fill="#000000" fill-opacity="1"><g transform="translate(316.90775, 293.201529)"><g><path d="M 220.96875 0 L 170.71875 0 L 169.296875 -55.953125 L 166.15625 -102.484375 L 162.71875 -102.484375 L 133.03125 -17.421875 L 89.921875 -17.421875 L 65.375 -102.484375 L 61.953125 -102.484375 L 57.953125 -61.375 L 55.09375 0 L 7.421875 0 L 25.40625 -184.703125 L 91.359375 -184.703125 L 96.78125 -158.4375 L 113.046875 -91.359375 L 116.484375 -91.359375 L 134.46875 -156.453125 L 141.03125 -184.703125 L 206.125 -184.703125 Z M 220.96875 0 "/></g></g></g><g fill="#ffde59" fill-opacity="1"><g transform="translate(547.001926, 293.201529)"><g><path d="M 33.6875 -54.234375 C 42.0625 -54.234375 48.578125 -51.851562 53.234375 -47.09375 C 57.898438 -42.34375 60.234375 -35.6875 60.234375 -27.125 C 60.234375 -17.988281 57.664062 -10.753906 52.53125 -5.421875 C 47.394531 -0.0976562 40.351562 2.5625 31.40625 2.5625 C 22.644531 2.5625 15.976562 0.234375 11.40625 -4.421875 C 6.84375 -9.085938 4.5625 -15.796875 4.5625 -24.546875 C 4.5625 -33.679688 7.175781 -40.910156 12.40625 -46.234375 C 17.644531 -51.566406 24.738281 -54.234375 33.6875 -54.234375 Z M 33.6875 -54.234375 "/></g></g></g></svg>